<svg width="48" height="49" viewBox="0 0 48 49" fill="none" xmlns="http://www.w3.org/2000/svg">
<g clip-path="url(#clip0_2478_640)">
<path d="M32 21.8333H40L36 16.5L32 21.8333ZM32 27.1667H40L36 32.5L32 27.1667Z" fill="#C4B5FD"/>
<path d="M9.33333 8.5H17.3333V40.5H9.33333C8.97971 40.5 8.64057 40.3595 8.39052 40.1095C8.14047 39.8594 8 39.5203 8 39.1667V9.83333C8 9.47971 8.14047 9.14057 8.39052 8.89052C8.64057 8.64047 8.97971 8.5 9.33333 8.5Z" fill="#7C3AED"/>
<path d="M20 8.5H28C28.3536 8.5 28.6928 8.64047 28.9428 8.89052C29.1929 9.14057 29.3333 9.47971 29.3333 9.83333V39.1667C29.3333 39.5203 29.1929 39.8594 28.9428 40.1095C28.6928 40.3595 28.3536 40.5 28 40.5H20V8.5Z" fill="#1DB5BE"/>
</g>
<defs>
<clipPath id="clip0_2478_640">
<rect width="32" height="32" fill="white" transform="translate(8 8.5)"/>
</clipPath>
</defs>
</svg>
