<svg width="32" height="33" viewBox="0 0 32 33" fill="none" xmlns="http://www.w3.org/2000/svg">
<path d="M12 13.8334H2.66671C2.31309 13.8334 1.97395 13.6929 1.7239 13.4429C1.47385 13.1928 1.33337 12.8537 1.33337 12.5V3.16671C1.33337 2.81309 1.47385 2.47395 1.7239 2.2239C1.97395 1.97385 2.31309 1.83337 2.66671 1.83337H12C12.3537 1.83337 12.6928 1.97385 12.9429 2.2239C13.1929 2.47395 13.3334 2.81309 13.3334 3.16671V12.5C13.3334 12.8537 13.1929 13.1928 12.9429 13.4429C12.6928 13.6929 12.3537 13.8334 12 13.8334Z" fill="#7C3AED"/>
<path d="M12 31.1667H2.66671C2.31309 31.1667 1.97395 31.0263 1.7239 30.7762C1.47385 30.5262 1.33337 30.187 1.33337 29.8334V20.5001C1.33337 20.1465 1.47385 19.8073 1.7239 19.5573C1.97395 19.3072 2.31309 19.1667 2.66671 19.1667H12C12.3537 19.1667 12.6928 19.3072 12.9429 19.5573C13.1929 19.8073 13.3334 20.1465 13.3334 20.5001V29.8334C13.3334 30.187 13.1929 30.5262 12.9429 30.7762C12.6928 31.0263 12.3537 31.1667 12 31.1667Z" fill="#7C3AED"/>
<path d="M17.3334 3.16675H30.6667V5.83341H17.3334V3.16675Z" fill="#1DB5BE"/>
<path d="M30.6667 20.5H17.3334V23.1667H30.6667V20.5Z" fill="#1DB5BE"/>
<path d="M30.6667 27.1667H17.3334V29.8334H30.6667V27.1667Z" fill="#C4B5FD"/>
<path d="M30.6667 9.83337H17.3334V12.5H30.6667V9.83337Z" fill="#C4B5FD"/>
</svg>
