<svg width="32" height="33" viewBox="0 0 32 33" fill="none" xmlns="http://www.w3.org/2000/svg">
<g clip-path="url(#clip0_2478_650)">
<path d="M28 32.5H16C15.6463 32.5 15.3072 32.3595 15.0571 32.1094C14.8071 31.8594 14.6666 31.5202 14.6666 31.1666V28.5C14.6666 28.1463 14.8071 27.8072 15.0571 27.5571C15.3072 27.3071 15.6463 27.1666 16 27.1666H28C28.3536 27.1666 28.6927 27.3071 28.9428 27.5571C29.1928 27.8072 29.3333 28.1463 29.3333 28.5V31.1666C29.3333 31.5202 29.1928 31.8594 28.9428 32.1094C28.6927 32.3595 28.3536 32.5 28 32.5Z" fill="#C4B5FD"/>
<path d="M28 0.5H3.99996C3.64634 0.5 3.3072 0.640475 3.05715 0.890523C2.8071 1.14057 2.66663 1.47971 2.66663 1.83333V4.5C2.66663 4.85362 2.8071 5.19276 3.05715 5.44281C3.3072 5.69286 3.64634 5.83333 3.99996 5.83333H28C28.3536 5.83333 28.6927 5.69286 28.9428 5.44281C29.1928 5.19276 29.3333 4.85362 29.3333 4.5V1.83333C29.3333 1.47971 29.1928 1.14057 28.9428 0.890523C28.6927 0.640475 28.3536 0.5 28 0.5Z" fill="#1DB5BE"/>
<path d="M28 8.5H3.99996C3.64634 8.5 3.3072 8.64047 3.05715 8.89052C2.8071 9.14057 2.66663 9.47971 2.66663 9.83333V23.1667C2.66663 23.5203 2.8071 23.8594 3.05715 24.1095C3.3072 24.3595 3.64634 24.5 3.99996 24.5H28C28.3536 24.5 28.6927 24.3595 28.9428 24.1095C29.1928 23.8594 29.3333 23.5203 29.3333 23.1667V9.83333C29.3333 9.47971 29.1928 9.14057 28.9428 8.89052C28.6927 8.64047 28.3536 8.5 28 8.5Z" fill="#7C3AED"/>
</g>
<defs>
<clipPath id="clip0_2478_650">
<rect width="32" height="32" fill="white" transform="translate(0 0.5)"/>
</clipPath>
</defs>
</svg>
