<svg width="32" height="33" viewBox="0 0 32 33" fill="none" xmlns="http://www.w3.org/2000/svg">
<path d="M6.66671 1.83337H2.66671C2.31309 1.83337 1.97395 1.97385 1.7239 2.2239C1.47385 2.47395 1.33337 2.81309 1.33337 3.16671V29.8334C1.33337 30.187 1.47385 30.5261 1.7239 30.7762C1.97395 31.0262 2.31309 31.1667 2.66671 31.1667H6.66671V1.83337Z" fill="#C4B5FD"/>
<path d="M9.33337 31.1667H22.6667V1.83337H9.33337V31.1667ZM16 25.8334C15.6464 25.8334 15.3073 25.6929 15.0572 25.4429C14.8072 25.1928 14.6667 24.8537 14.6667 24.5C14.6667 24.1464 14.8072 23.8073 15.0572 23.5572C15.3073 23.3072 15.6464 23.1667 16 23.1667C16.3537 23.1667 16.6928 23.3072 16.9429 23.5572C17.1929 23.8073 17.3334 24.1464 17.3334 24.5C17.3334 24.8537 17.1929 25.1928 16.9429 25.4429C16.6928 25.6929 16.3537 25.8334 16 25.8334ZM16 7.16671C16.3537 7.16671 16.6928 7.30718 16.9429 7.55723C17.1929 7.80728 17.3334 8.14642 17.3334 8.50004C17.3334 8.85366 17.1929 9.1928 16.9429 9.44285C16.6928 9.6929 16.3537 9.83337 16 9.83337C15.6464 9.83337 15.3073 9.6929 15.0572 9.44285C14.8072 9.1928 14.6667 8.85366 14.6667 8.50004C14.6667 8.14642 14.8072 7.80728 15.0572 7.55723C15.3073 7.30718 15.6464 7.16671 16 7.16671ZM16 15.1667C16.3537 15.1667 16.6928 15.3072 16.9429 15.5572C17.1929 15.8073 17.3334 16.1464 17.3334 16.5C17.3334 16.8537 17.1929 17.1928 16.9429 17.4429C16.6928 17.6929 16.3537 17.8334 16 17.8334C15.6464 17.8334 15.3073 17.6929 15.0572 17.4429C14.8072 17.1928 14.6667 16.8537 14.6667 16.5C14.6667 16.1464 14.8072 15.8073 15.0572 15.5572C15.3073 15.3072 15.6464 15.1667 16 15.1667Z" fill="#7C3AED"/>
<path d="M29.3334 1.83337H25.3334V31.1667H29.3334C29.687 31.1667 30.0261 31.0262 30.2762 30.7762C30.5262 30.5261 30.6667 30.187 30.6667 29.8334V3.16671C30.6667 2.81309 30.5262 2.47395 30.2762 2.2239C30.0261 1.97385 29.687 1.83337 29.3334 1.83337Z" fill="#1DB5BE"/>
</svg>
